TITLE ""
FILE "DISC1Track10.mp3" MP3
  TRACK 01 AUDIO
    TITLE "DISC1Track10_01"
    INDEX 01 00:00:00
  TRACK 02 AUDIO
    TITLE "DISC1Track10_02"
    INDEX 01 00:01:14
  TRACK 03 AUDIO
    TITLE "DISC1Track10_03"
    INDEX 01 00:01:29
  TRACK 04 AUDIO
    TITLE "DISC1Track10_04"
    INDEX 01 00:05:29
  TRACK 05 AUDIO
    TITLE "DISC1Track10_05"
    INDEX 01 00:09:23
  TRACK 06 AUDIO
    TITLE "DISC1Track10_06"
    INDEX 01 00:12:61
  TRACK 07 AUDIO
    TITLE "DISC1Track10_07"
    INDEX 01 00:12:74
  TRACK 08 AUDIO
    TITLE "DISC1Track10_08"
    INDEX 01 00:16:11
  TRACK 09 AUDIO
    TITLE "DISC1Track10_09"
    INDEX 01 00:20:11
  TRACK 10 AUDIO
    TITLE "DISC1Track10_10"
    INDEX 01 00:23:49
  TRACK 11 AUDIO
    TITLE "DISC1Track10_11"
    INDEX 01 00:23:66
  TRACK 12 AUDIO
    TITLE "DISC1Track10_12"
    INDEX 01 00:27:03
  TRACK 13 AUDIO
    TITLE "DISC1Track10_13"
    INDEX 01 00:29:67
  TRACK 14 AUDIO
    TITLE "DISC1Track10_14"
    INDEX 01 00:32:18
  TRACK 15 AUDIO
    TITLE "DISC1Track10_15"
    INDEX 01 00:32:34
  TRACK 16 AUDIO
    TITLE "DISC1Track10_16"
    INDEX 01 00:34:29
  TRACK 17 AUDIO
    TITLE "DISC1Track10_17"
    INDEX 01 00:36:39
  TRACK 18 AUDIO
    TITLE "DISC1Track10_18"
    INDEX 01 00:38:25
  TRACK 19 AUDIO
    TITLE "DISC1Track10_19"
    INDEX 01 00:38:40
  TRACK 20 AUDIO
    TITLE "DISC1Track10_20"
    INDEX 01 00:42:01
  TRACK 21 AUDIO
    TITLE "DISC1Track10_21"
    INDEX 01 00:45:44
  TRACK 22 AUDIO
    TITLE "DISC1Track10_22"
    INDEX 01 00:48:50
  TRACK 23 AUDIO
    TITLE "DISC1Track10_23"
    INDEX 01 00:48:60
  TRACK 24 AUDIO
    TITLE "DISC1Track10_24"
    INDEX 01 00:51:41
  TRACK 25 AUDIO
    TITLE "DISC1Track10_25"
    INDEX 01 00:54:06
  TRACK 26 AUDIO
    TITLE "DISC1Track10_26"
    INDEX 01 00:56:26
  TRACK 27 AUDIO
    TITLE "DISC1Track10_27"
    INDEX 01 00:56:42
  TRACK 28 AUDIO
    TITLE "DISC1Track10_28"
    INDEX 01 01:00:36
  TRACK 29 AUDIO
    TITLE "DISC1Track10_29"
    INDEX 01 01:04:53
  TRACK 30 AUDIO
    TITLE "DISC1Track10_30"
    INDEX 01 01:08:43
  TRACK 31 AUDIO
    TITLE "DISC1Track10_31"
    INDEX 01 01:08:61
  TRACK 32 AUDIO
    TITLE "DISC1Track10_32"
    INDEX 01 01:12:25
  TRACK 33 AUDIO
    TITLE "DISC1Track10_33"
    INDEX 01 01:16:21
  TRACK 34 AUDIO
    TITLE "DISC1Track10_34"
    INDEX 01 01:19:59
  TRACK 35 AUDIO
    TITLE "DISC1Track10_35"
    INDEX 01 01:20:00
  TRACK 36 AUDIO
    TITLE "DISC1Track10_36"
    INDEX 01 01:23:45
  TRACK 37 AUDIO
    TITLE "DISC1Track10_37"
    INDEX 01 01:26:24
  TRACK 38 AUDIO
    TITLE "DISC1Track10_38"
    INDEX 01 01:28:42
  TRACK 39 AUDIO
    TITLE "DISC1Track10_39"
    INDEX 01 01:28:58
  TRACK 40 AUDIO
    TITLE "DISC1Track10_40"
    INDEX 01 01:32:42
  TRACK 41 AUDIO
    TITLE "DISC1Track10_41"
    INDEX 01 01:36:01
  TRACK 42 AUDIO
    TITLE "DISC1Track10_42"
    INDEX 01 01:38:72
  TRACK 43 AUDIO
    TITLE "DISC1Track10_43"
    INDEX 01 01:39:11
  TRACK 44 AUDIO
    TITLE "DISC1Track10_44"
    INDEX 01 01:42:13
  TRACK 45 AUDIO
    TITLE "DISC1Track10_45"
    INDEX 01 01:44:47
  TRACK 46 AUDIO
    TITLE "DISC1Track10_46"
    INDEX 01 01:46:58
